<?xml version="1.0" encoding="UTF-8"?> <!-- Generator: Adobe Illustrator 23.1.1, SVG Export Plug-In . SVG Version: 6.00 Build 0) --> <svg xmlns="http://www.w3.org/2000/svg" xmlns:xlink="http://www.w3.org/1999/xlink" id="Layer_1" x="0px" y="0px" viewBox="0 0 280 100" style="enable-background:new 0 0 280 100;" xml:space="preserve"> <style type="text/css"> .st0{fill:#010101;} .st1{fill:none;stroke:#010101;stroke-width:0.3063;stroke-miterlimit:10;} .st2{fill:none;stroke:#010101;stroke-width:0.2309;stroke-miterlimit:10;} .st3{fill:none;stroke:#010101;stroke-width:0.2565;stroke-miterlimit:10;} .st4{fill:none;stroke:#010101;stroke-width:0.285;stroke-miterlimit:10;} .st5{fill:none;stroke:#010101;stroke-width:0.3167;stroke-miterlimit:10;} .st6{fill:none;stroke:#010101;stroke-width:0.3519;stroke-miterlimit:10;} .st7{fill:none;stroke:#010101;stroke-width:0.391;stroke-miterlimit:10;} .st8{fill:none;stroke:#010101;stroke-width:0.4345;stroke-miterlimit:10;} .st9{fill:none;stroke:#010101;stroke-width:0.4827;stroke-miterlimit:10;} .st10{fill:none;stroke:#010101;stroke-width:0.5364;stroke-miterlimit:10;} .st11{fill:none;stroke:#010101;stroke-width:0.596;stroke-miterlimit:10;} .st12{fill:none;stroke:#010101;stroke-width:0.6622;stroke-miterlimit:10;} </style> <path class="st0" d="M39.1,70.5c-2.7,3.1-6.7,4.6-12.1,4.6H0.7V21h22.4c5.8,0,10.2,1.5,13.1,4.3c2.9,2.9,4.4,6.5,4.4,10.9 c0,4.3-2.6,8.5-5.3,10.1c4.4,1.9,8,6.7,8,12.2C43.3,63.4,41.9,67.4,39.1,70.5z M23.4,30.5H10.8v12.1h12.6c4,0,7-2.3,7-6.3 C30.4,32.6,27.5,30.5,23.4,30.5z M25,52H10.8v13.8H25c5.3,0,8.1-3.3,8.1-7.1C33.1,54.7,30.3,52,25,52z"></path> <path class="st0" d="M151.5,44.2L166.1,21h11.6l-21.2,32.9v21.3h-10.1V53.9L125,21h11.9L151.5,44.2z"></path> <path class="st0" d="M189.5,62.7l-4.9,12.5h-10.4L195.5,21h10.4l21.3,54.2h-10.4l-4.9-12.5H189.5z M200.7,34.2l-7.5,19h14.9 L200.7,34.2z"></path> <path class="st0" d="M278.2,75.2h-11.1l-10.1-20.4h-12.8v20.4h-10.1V21h23.7c6,0,10.4,1.6,13.5,4.9c3,3.2,4.5,7.2,4.5,11.8 c0,6.3-3.6,12-9.1,14.8L278.2,75.2z M244.2,30.5v14.9h13.7c4.4,0,7.7-2.5,7.7-7.7c0-6.4-5.3-7.2-7.7-7.2H244.2z"></path> <line class="st1" x1="145.6" y1="83" x2="278.4" y2="83"></line> <g> <g> <circle class="st2" cx="85.6" cy="45.6" r="13.3"></circle> </g> <g> <circle class="st3" cx="85.6" cy="45.6" r="14.8"></circle> </g> <g> <circle class="st4" cx="85.6" cy="45.6" r="16.4"></circle> </g> <g> <circle class="st5" cx="85.6" cy="45.6" r="18.2"></circle> </g> <g> <circle class="st6" cx="85.6" cy="45.6" r="20.3"></circle> </g> <g> <circle class="st7" cx="85.6" cy="45.6" r="22.5"></circle> </g> <g> <circle class="st8" cx="85.6" cy="45.6" r="25"></circle> </g> <g> <circle class="st9" cx="85.6" cy="45.6" r="27.8"></circle> </g> <g> <circle class="st10" cx="85.6" cy="45.6" r="30.9"></circle> </g> <g> <circle class="st11" cx="85.6" cy="45.6" r="34.3"></circle> </g> <g> <circle class="st12" cx="85.6" cy="45.6" r="38.1"></circle> </g> </g> </svg> 